<svg xmlns="http://www.w3.org/2000/svg" width="15" height="22" viewBox="0 0 15 22"><g><g><g><path fill="#fff" d="M7.459 10.189c-.967 0-2.026-.49-2.549-1.839-.078-.214-.071-.645-.071-.684v-.607c0-1.72 1.446-2.503 2.703-2.503 1.549 0 2.746 1.252 2.746 2.817 0 1.564-1.28 2.816-2.83 2.816zm7.187-4.713c-.078-.294-.235-.607-.352-.88C12.901 1.212 9.857 0 7.4 0 4.109 0 .484 2.23 0 6.825v.939c0 .039.013.39.032.567.272 2.19 1.982 4.517 3.26 6.707 1.373 2.347 2.8 4.655 4.212 6.962.871-1.506 1.74-3.031 2.59-4.498.233-.43.502-.86.734-1.271.155-.274.45-.547.586-.802C12.788 12.887 15 10.325 15 7.803V6.766c0-.273-.335-1.231-.354-1.29z"/></g><g><g/></g></g></g></svg>