<svg xmlns="http://www.w3.org/2000/svg" width="24" height="26" viewBox="0 0 24 26"><g><g><path fill="#fff" d="M0 2a2 2 0 0 1 2-2h20a2 2 0 0 1 2 2v18a2 2 0 0 1-2 2H2a2 2 0 0 1-2-2z"/></g><g><path fill="#fff" d="M2.167 12.591A1 1 0 0 1 2.973 11h18.054a1 1 0 0 1 .806 1.591l-9.027 12.31a1 1 0 0 1-1.612 0z"/></g><g><path fill="#fa6400" d="M15.685 5a4.311 4.311 0 0 0-3.05 1.254L12 6.882l-.634-.628a4.323 4.323 0 0 0-3.051-1.253 4.323 4.323 0 0 0-3.05 1.253 4.262 4.262 0 0 0 0 6.06L12 19l6.736-6.686a4.262 4.262 0 0 0 0-6.06A4.323 4.323 0 0 0 15.685 5z"/></g><g><path fill="#fff" d="M16 10a1 1 0 1 0 0-2 1 1 0 0 0 0 2z"/></g></g></svg>