<svg xmlns="http://www.w3.org/2000/svg" width="40" height="39" viewBox="0 0 40 39"><g><g clip-path="url(#clip-D17E0D3A-EB59-0A6A-BB98-699B140D184D)"><g><path fill="#fff" d="M27.717 37.114a7.642 7.642 0 0 1-4.827-.31l-12.042-4.862a.76.76 0 0 0-.285-.055H7.476v-9.061h7.279l5.055 2.153 2.766 1.178c.979.418 1.447 1.6 1.046 2.606-.08.202-.18.394-.313.565a1.982 1.982 0 0 1-2.2.682l-5.257-2.08-.066-.026a.774.774 0 0 0-1.01.462.812.812 0 0 0 .45 1.04s2.964 1.172 5.224 2.07c.045.018.09.034.136.05l1.735.687c.525.208 1.047.414 1.593.558a9.178 9.178 0 0 0 4.448.057l2.695-.634.009-.003 5.116-1.205a1.786 1.786 0 0 1 1.407.252c.42.278.707.708.809 1.21.201.997-.392 1.974-1.35 2.225zM5.914 33.455H1.562V20.929H5.914zm4.865-19.396h5.4v7.632l-.97-.413a.76.76 0 0 0-.298-.06h-4.132zm6.963-5.268l5.399.019v15.847l-3.018-1.285-2.381-1.015zm12.36 21.978l-2.089.492a7.71 7.71 0 0 1-3.3.049l-.01-.003v-1.219c.595-.915.793-2.074.48-3.133a3.663 3.663 0 0 0-.479-1.018l-.001-.003v-7.731h5.399zm8.33-.885a3.301 3.301 0 0 0-2.599-.466l-4.169.982v-1.754a16.84 16.84 0 0 0 2.326-2.836 16.89 16.89 0 0 0 2.284-5.536c.511-2.352.522-4.841.032-7.2a.782.782 0 0 0-.928-.618.804.804 0 0 0-.6.954 15.772 15.772 0 0 1-.029 6.513 15.264 15.264 0 0 1-2.064 5.002c-.29.454-.643.931-1.02 1.387v-8.913a.793.793 0 0 0-.782-.804h-6.18V8.008a.793.793 0 0 0-.779-.804l-6.961-.024h-.003a.768.768 0 0 0-.551.235.815.815 0 0 0-.23.57v4.466H10a.793.793 0 0 0-.782.804v7.962h-1.74v-1.092a.793.793 0 0 0-.782-.803h-.801a15.631 15.631 0 0 1-.235-2.343 15.505 15.505 0 0 1 1.364-6.768.815.815 0 0 0-.378-1.069.772.772 0 0 0-1.038.39 17.162 17.162 0 0 0-1.51 7.487c.019.77.09 1.54.211 2.303H.781a.793.793 0 0 0-.781.804v14.133c0 .444.35.804.781.804h5.914c.431 0 .781-.36.781-.804v-.764h2.939L22.32 38.3a9.182 9.182 0 0 0 3.446.675c.78 0 1.564-.1 2.336-.303l9.33-2.44c1.772-.464 2.867-2.27 2.496-4.11a3.481 3.481 0 0 0-1.496-2.238z"/></g><g><path fill="#fff" d="M9.76 6.154a.708.708 0 0 0 .51-.223c1.356-1.395 2.976-2.507 4.685-3.217a12.872 12.872 0 0 1 5.87-.949c1.423.107 2.817.452 4.144 1.028.392.17.832-.054.98-.5.15-.447-.046-.947-.439-1.117A14.16 14.16 0 0 0 20.924.039a14.232 14.232 0 0 0-6.49 1.05c-1.891.785-3.683 2.016-5.183 3.557a.95.95 0 0 0-.055 1.223.72.72 0 0 0 .564.285z"/></g><g><path fill="#fff" d="M27.27 11.084a.767.767 0 0 0 1.103-.08l6.435-7.622a.82.82 0 0 0-.077-1.135.767.767 0 0 0-1.103.08l-6.436 7.622a.82.82 0 0 0 .077 1.135z"/></g><g><path fill="#fff" d="M34.005 10.689a.417.417 0 0 1-.412-.423c0-.232.185-.422.412-.422.227 0 .412.19.412.422a.418.418 0 0 1-.412.423zM32 10.26c0 1.131.897 2.052 2 2.052s2-.92 2-2.052c0-1.13-.897-2.051-2-2.051s-2 .92-2 2.051z"/></g><g><path fill="#fff" d="M29.005 3.684c.227 0 .412.19.412.422a.418.418 0 0 1-.412.423.418.418 0 0 1-.412-.423c0-.233.185-.422.412-.422zM31 4.1c0-1.13-.897-2.051-2-2.051s-2 .92-2 2.051c0 1.131.897 2.052 2 2.052s2-.92 2-2.052z"/></g><g><path fill="#fff" d="M7.075 7.567c.16.395.555.655.974.633.413-.022.776-.309.904-.712a1.05 1.05 0 0 0-.344-1.128.992.992 0 0 0-1.165-.04 1.05 1.05 0 0 0-.37 1.247z"/></g></g></g></svg>