<svg xmlns="http://www.w3.org/2000/svg" width="21" height="22" viewBox="0 0 21 22"><g><g><g><path fill="#548b51" d="M19.118 15.872c0 2.176-1.734 3.946-3.865 3.946H6.002c-2.132 0-3.866-1.77-3.866-3.946V6.43c0-2.176 1.734-3.946 3.866-3.946h9.25c2.132 0 3.866 1.77 3.866 3.946v9.443zM15.252.612h-9.25C2.86.613.305 3.223.305 6.43v9.443c0 3.207 2.555 5.816 5.697 5.816h9.25c3.142 0 5.698-2.609 5.698-5.816V6.43c0-3.207-2.556-5.816-5.698-5.816z"/></g><g><path fill="#548b51" d="M10.633 14.716c-1.924 0-3.488-1.597-3.488-3.56s1.564-3.56 3.488-3.56c1.923 0 3.488 1.597 3.488 3.56s-1.565 3.56-3.488 3.56zm0-8.99c-2.934 0-5.32 2.436-5.32 5.43 0 2.994 2.386 5.43 5.32 5.43 2.933 0 5.32-2.436 5.32-5.43 0-2.994-2.387-5.43-5.32-5.43z"/></g><g><path fill="#548b51" d="M16.167 4.136c-.353 0-.7.146-.949.401a1.392 1.392 0 0 0 0 1.94c.25.254.596.402.949.402.354 0 .7-.148.95-.402a1.396 1.396 0 0 0 0-1.94 1.335 1.335 0 0 0-.95-.401z"/></g></g></g></svg>