<svg xmlns="http://www.w3.org/2000/svg" width="23" height="15" viewBox="0 0 23 15"><g><g><g/><g><g><g><path fill="#fff" d="M8.584 8.693l-7.29 5.592c.453.283.996.452 1.582.452h17.258c.586 0 1.129-.169 1.582-.452l-7.29-5.592-1.663 1.486a1.917 1.917 0 0 1-2.516 0zm14.039-7.312l-7.359 6.562 7.233 5.54.027.017c.298-.43.476-.945.476-1.5V2.727c0-.49-.14-.95-.377-1.346zm-22.246 0A2.622 2.622 0 0 0 0 2.727V12c0 .555.178 1.07.476 1.5l.027-.017 7.233-5.54L.377 1.381zM2.875 0c-.657 0-1.26.213-1.743.563l9.9 8.82c.223.199.713.199.935 0l9.901-8.82A2.966 2.966 0 0 0 20.125 0z"/></g></g></g></g></g></svg>