<svg xmlns="http://www.w3.org/2000/svg" width="20" height="20" viewBox="0 0 20 20"><g><g><g/><g><path fill="#fff" d="M19.91 15.946l-.105-.304c-.233-.703-.998-1.43-1.711-1.628l-2.63-.715c-.712-.195-1.73.067-2.248.591l-.959.948a10.085 10.085 0 0 1-7.09-7.097l.947-.952c.517-.52.778-1.536.59-2.252l-.72-2.624C5.791 1.199 5.057.429 4.363.188l-.3-.095c-.698-.24-1.709.003-2.22.525L.41 2.04c-.246.254-.409.972-.409.976A16.763 16.763 0 0 0 4.92 15.08 16.79 16.79 0 0 0 16.937 20c.028 0 .77-.163 1.029-.414l1.418-1.423c.526-.52.758-1.52.526-2.216z"/></g></g></g></svg>