<svg xmlns="http://www.w3.org/2000/svg" width="82" height="85" viewBox="0 0 82 85"><defs><mask id="jlqfb" width="2" height="2" x="-1" y="-1"><path fill="#fff" d="M9 0h64v65H9z"/><path d="M9 32.087c0-17.673 14.327-32 32-32 17.673 0 32 14.327 32 32v.16c0 17.674-14.327 32-32 32-17.673 0-32-14.326-32-32z"/></mask><filter id="jlqfa" width="110" height="123" x="-14" y="-23" filterUnits="userSpaceOnUse"><feOffset dy="12" in="SourceGraphic" result="FeOffset1095Out"/><feGaussianBlur in="FeOffset1095Out" result="FeGaussianBlur1096Out" stdDeviation="5.2 5.2"/></filter><clipPath id="jlqfc"><path d="M9 32.087c0-17.673 14.327-32 32-32 17.673 0 32 14.327 32 32v.16c0 17.674-14.327 32-32 32-17.673 0-32-14.326-32-32z"/></clipPath></defs><g><g><g><g filter="url(#jlqfa)"><path fill="none" d="M9 32.087c0-17.673 14.327-32 32-32 17.673 0 32 14.327 32 32v.16c0 17.674-14.327 32-32 32-17.673 0-32-14.326-32-32z" mask="url(&quot;#jlqfb&quot;)"/><path fill-opacity=".08" d="M9 32.087c0-17.673 14.327-32 32-32 17.673 0 32 14.327 32 32v.16c0 17.674-14.327 32-32 32-17.673 0-32-14.326-32-32z"/></g><path fill="#85c847" d="M9 32.087c0-17.673 14.327-32 32-32 17.673 0 32 14.327 32 32v.16c0 17.674-14.327 32-32 32-17.673 0-32-14.326-32-32z"/></g><g clip-path="url(#jlqfc)"><g><path fill="#fff" d="M48.717 50.327a7.625 7.625 0 0 1-4.827-.312l-12.042-4.873a.76.76 0 0 0-.285-.056h-3.087v-9.083h7.279l5.055 2.158 2.766 1.182c.979.419 1.447 1.603 1.046 2.612-.08.202-.18.395-.313.566a1.98 1.98 0 0 1-2.048.73l-.018-.006a1.882 1.882 0 0 1-.135-.04l-5.256-2.085a12.388 12.388 0 0 0-.066-.026.774.774 0 0 0-1.01.463.814.814 0 0 0 .45 1.042s2.964 1.176 5.224 2.075c.045.018.09.035.136.051l1.735.689c.525.208 1.047.415 1.593.559a9.157 9.157 0 0 0 4.448.057l2.695-.636.009-.002 5.116-1.209a1.782 1.782 0 0 1 1.407.253c.42.278.707.71.809 1.214.201.999-.392 1.978-1.35 2.23zm-21.803-3.668h-4.352V34.102H26.915zm4.865-19.445h5.4v7.651l-.97-.413a.76.76 0 0 0-.298-.062h-4.132zm6.963-5.281l5.399.019v15.887l-3.018-1.288-2.381-1.018zm12.36 22.033l-2.089.493a7.69 7.69 0 0 1-3.3.05c-.003-.002-.007-.003-.01-.003v-1.223c.595-.917.793-2.08.48-3.14a3.677 3.677 0 0 0-.479-1.021l-.001-.003v-7.75h5.399zm8.33-.887a3.294 3.294 0 0 0-2.599-.467l-4.169.984v-1.758a16.873 16.873 0 0 0 2.326-2.844 16.956 16.956 0 0 0 2.284-5.55c.511-2.357.522-4.853.032-7.218a.782.782 0 0 0-.928-.62.806.806 0 0 0-.6.958 15.85 15.85 0 0 1-.029 6.529 15.323 15.323 0 0 1-2.064 5.014c-.29.456-.643.934-1.02 1.39v-8.935a.794.794 0 0 0-.782-.806h-6.18v-8.608a.794.794 0 0 0-.779-.806l-6.961-.024h-.003a.767.767 0 0 0-.551.235.818.818 0 0 0-.23.571v4.478H31a.794.794 0 0 0-.782.806v7.982h-1.74v-1.094a.794.794 0 0 0-.782-.806h-.801a15.708 15.708 0 0 1-.235-2.348 15.579 15.579 0 0 1 1.364-6.785.817.817 0 0 0-.378-1.072.772.772 0 0 0-1.038.391 17.244 17.244 0 0 0-1.51 7.505c.019.773.09 1.545.211 2.309h-3.527a.794.794 0 0 0-.781.806v14.169c0 .445.35.806.781.806h5.914c.431 0 .781-.361.781-.806v-.767h2.939l11.905 4.818a9.162 9.162 0 0 0 3.446.676c.78 0 1.564-.1 2.336-.303l9.33-2.447c1.772-.464 2.867-2.274 2.496-4.12a3.49 3.49 0 0 0-1.496-2.243z"/></g><g><path fill="#fff" d="M30.76 19.29a.707.707 0 0 0 .51-.224c1.356-1.398 2.976-2.513 4.685-3.225a12.843 12.843 0 0 1 5.87-.951c1.423.106 2.817.453 4.144 1.03.392.17.832-.054.98-.502.15-.448-.046-.949-.439-1.12a14.13 14.13 0 0 0-4.586-1.14 14.2 14.2 0 0 0-6.49 1.053c-1.891.788-3.683 2.021-5.183 3.567a.955.955 0 0 0-.055 1.225c.15.19.357.286.564.286z"/></g><g><path fill="#fff" d="M48.27 24.231a.766.766 0 0 0 1.103-.08l6.435-7.64a.824.824 0 0 0-.077-1.138.766.766 0 0 0-1.103.08l-6.436 7.64a.824.824 0 0 0 .077 1.138z"/></g><g><path fill="#fff" d="M55.005 23.835a.418.418 0 0 1-.412-.423c0-.233.185-.423.412-.423.227 0 .412.19.412.423a.418.418 0 0 1-.412.423zM53 23.407c0 1.134.897 2.056 2 2.056s2-.922 2-2.056-.897-2.056-2-2.056-2 .922-2 2.056z"/></g><g><path fill="#fff" d="M50.005 16.813c.227 0 .412.19.412.424a.418.418 0 0 1-.412.423.418.418 0 0 1-.412-.423c0-.234.185-.424.412-.424zm1.995.419c0-1.134-.897-2.057-2-2.057s-2 .923-2 2.057c0 1.133.897 2.056 2 2.056s2-.923 2-2.056z"/></g><g><path fill="#fff" d="M28.075 20.706c.16.396.555.657.974.634.413-.022.776-.31.904-.713a1.055 1.055 0 0 0-.344-1.131.99.99 0 0 0-1.166-.04c-.392.268-.55.803-.368 1.25z"/></g></g></g></g></svg>