<svg xmlns="http://www.w3.org/2000/svg" width="27" height="16" viewBox="0 0 27 16"><g><g><path fill="#85c847" d="M22.746 9.85c.86.834 1.769 1.619 2.541 2.537.341.408.664.829.911 1.302.35.673.033 1.413-.575 1.453l-3.78-.001c-.976.08-1.754-.31-2.408-.97-.523-.53-1.008-1.093-1.511-1.64a3.57 3.57 0 0 0-.68-.6c-.516-.332-.964-.23-1.26.304-.3.543-.368 1.145-.397 1.75-.04.883-.31 1.115-1.204 1.156-1.911.09-3.725-.198-5.41-1.154-1.485-.843-2.637-2.034-3.64-3.381C3.383 7.982 1.888 5.098.544 2.134c-.302-.668-.081-1.026.662-1.04 1.233-.023 2.466-.021 3.7 0 .502.006.834.292 1.027.762.668 1.627 1.484 3.176 2.509 4.611.273.383.551.765.947 1.034.439.298.773.199.979-.286.13-.307.188-.638.217-.967.098-1.132.111-2.262-.06-3.39-.105-.704-.505-1.16-1.213-1.293-.362-.068-.308-.201-.133-.406.304-.353.59-.573 1.16-.573h4.272c.673.132.822.432.914 1.103l.004 4.709c-.008.26.13 1.031.603 1.203.377.123.626-.177.853-.415 1.023-1.077 1.753-2.35 2.405-3.668.29-.58.538-1.182.78-1.783.178-.446.459-.666.966-.656l4.112.003c.121 0 .245.002.363.022.693.117.883.413.669 1.084-.337 1.054-.994 1.931-1.635 2.813-.686.942-1.42 1.85-2.1 2.798-.624.865-.574 1.3.202 2.052z"/></g></g></svg>