<svg xmlns="http://www.w3.org/2000/svg" width="27" height="19" viewBox="0 0 27 19"><g><g><g><path fill="#85c847" d="M17.37 9.844l-5.445 2.87a.83.83 0 0 1-.821-.026.846.846 0 0 1-.404-.723V6.244c0-.295.153-.569.403-.722a.83.83 0 0 1 .82-.028l5.445 2.852a.845.845 0 1 1 .002 1.498zm8.278-8.249C24.711.475 22.982.017 19.68.017H7.689c-3.378 0-5.136.487-6.07 1.68C.71 2.861.71 4.576.71 6.95v4.524c0 4.598 1.08 6.933 6.98 6.933h11.99c2.864 0 4.451-.404 5.478-1.393 1.053-1.015 1.503-2.672 1.503-5.54V6.949c0-2.503-.07-4.228-1.012-5.354z"/></g></g></g></svg>