<svg xmlns="http://www.w3.org/2000/svg" width="218" height="41" viewBox="0 0 218 41"><defs><clipPath id="3nraa"><path d="M0 .577h38.678v38.934H0z"/></clipPath><clipPath id="3nrab"><path d="M48.39 27.175h169.384v13.433H48.39z"/></clipPath></defs><g><g><g><g><g/><g clip-path="url(#3nraa)"><path fill="#e6e6e7" d="M0 .577h38.678v38.934H0zM19.429 4.8H4.196v26.322L15.1 15.606a.467.467 0 0 0 .003-.532l-2.726-3.864c-.13-.198-.14-.45.093-.647zm2.365 0l12.689 17.975V4.8zm7.56 30.488L18.572 20.022c-.107-.15-.293-.141-.414-.002L7.413 35.288h8.582l-2.743-2.686c-.165-.215-.15-.415-.013-.603l5.567-5.736c.21-.174.42-.179.633-.015l5.283 5.183c.17.196.157.44-.016.629l-3.13 3.228z"/></g></g><g><path fill="#edbb0a" d="M11.514 9.571l7.015-5.012a.448.448 0 0 1 .648.1L38.521 32.09a.459.459 0 0 1-.118.636l-7.005 5.005c-.248.162-.481.094-.645-.1L17.338 18.608c-.107-.15-.293-.141-.415-.003L3.475 37.747a.455.455 0 0 1-.736.009L.442 34.86c-.15-.219-.183-.46-.007-.737l13.708-19.51a.467.467 0 0 0 .003-.531l-2.725-3.864c-.13-.198-.14-.45.093-.647m.04 22.064l5.147-5.313c.209-.174.42-.179.633-.016l5.284 5.184c.169.196.156.44-.017.629l-5.116 5.283a.448.448 0 0 1-.644.011l-5.274-5.175c-.164-.216-.15-.414-.012-.603"/></g><g><path fill="#231f20" d="M34.633 24.066a1.86 1.86 0 0 1 1.851-1.874c1.027 0 1.862.836 1.862 1.874 0 1.023-.83 1.864-1.862 1.864-1.026 0-1.85-.84-1.85-1.864zm.223 0c0 .898.715 1.644 1.625 1.644.916 0 1.636-.746 1.636-1.644 0-.918-.725-1.649-1.636-1.649-.905 0-1.625.73-1.625 1.649zm1.83-.97c.135 0 .581.03.581.474 0 .287-.14.407-.384.485l.384.601c.11.172.068.13.239.193v.115h-.374l-.508-.846h-.42v.564c0 .047.01.125.145.167v.115h-.565v-.115c.12-.031.16-.084.16-.22v-1.226c0-.151-.03-.178-.16-.219v-.088zm-.217.887c.145 0 .503-.021.503-.397 0-.35-.322-.355-.503-.355h-.265v.752z"/></g><g><path fill="#005ead" d="M62.783 13.847l-1.581.418c-.735.207-1.25.45-1.557.73-.3.28-.454.677-.454 1.2v.393c0 .477.147.834.442 1.065.294.235.742.353 1.33.353.637 0 1.103-.114 1.392-.339.288-.225.428-.584.428-1.079zm-.048-4.363v-.757c0-.522-.135-.886-.405-1.093-.276-.208-.73-.311-1.367-.311-.588 0-1.024.114-1.306.339-.276.224-.416.58-.416 1.065v.258a.327.327 0 0 1-.32.323l-10.224-.001a.316.316 0 0 1-.316-.315v-.954c0-1.503.577-2.552 1.716-3.146C51.237 4.3 53.237 4 56.093 4h10.424c2.845 0 4.838.302 5.977.9 1.14.597 1.71 1.645 1.71 3.138V21.39c-.013.171-.136.317-.322.315H63.344a.325.325 0 0 1-.321-.326v-.78a21.18 21.18 0 0 1-3.519.937 21.1 21.1 0 0 1-3.642.304c-2.605 0-4.585-.443-5.952-1.324-1.367-.882-2.048-2.164-2.048-3.848v-.716c0-1.078.362-1.912 1.08-2.5.717-.584 1.992-1.095 3.831-1.538zm29.474-.08c0-.477-.128-.826-.38-1.04-.257-.218-.673-.326-1.243-.326-.547 0-.951.111-1.215.332-.263.222-.392.564-.392 1.034v6.967c0 .47.129.812.392 1.026.264.218.687.325 1.257.325.558 0 .962-.107 1.208-.325.251-.214.373-.556.373-1.026zm11.574 16.893h-11.57v-5.59a20.362 20.362 0 0 1-3.379.864c-1.098.18-2.262.27-3.495.27-2.6 0-4.593-.444-5.972-1.325-1.38-.882-2.072-2.164-2.072-3.848V9.093c0-1.677.686-2.953 2.06-3.83 1.373-.879 3.366-1.318 5.984-1.318 6.644 0 10.55.107 18.124.107.168 0 .315.133.32.323zm15.44-18.25l-.02 3.001h1.383c.637 0 1.152-.31 1.422-.494.27-.182.35-.787.35-1.242 0-.476-.13-.805-.397-.988-.265-.185-.724-.278-1.375-.278zm0 9.606h1.363c.666 0 1.124-.09 1.385-.272.256-.18.387-.512.387-.994v-.713c0-.469-.13-.796-.397-.983-.265-.189-.724-.284-1.375-.284h-1.362zM106.984 4.34a.324.324 0 0 1 .32-.324h18.922c2.853 0 4.892.328 6.116.983 1.226.656 1.84 1.73 1.84 3.219 0 1.184-.392 2.09-1.177 2.712-.786.623-1.899 1.063-3.723 1.319v.035c1.745.248 3.14.723 3.913 1.464.79.76 1.187 1.893 1.187 3.404 0 1.675-.594 2.851-1.782 3.532-1.187.68-3.248 1.021-6.174 1.021h-19.123c-.163-.007-.315-.11-.319-.335zm29.873 0c.007-.18.133-.324.318-.324h19.651c.17 0 .313.115.326.325v3.396c-.024.201-.156.304-.325.31h-7.733v2.73h7.609c.172 0 .313.147.315.316v3.084a.32.32 0 0 1-.335.318h-7.589v3.18h7.743c.196.01.312.158.315.325v3.389a.322.322 0 0 1-.317.316h-19.666c-.188-.014-.304-.129-.312-.325zm23.13.004a.321.321 0 0 1 .32-.328h11.37c.168 0 .32.121.324.324v6.58c.011.07.082.085.118.029l3.729-6.765a.322.322 0 0 1 .28-.168h11.846c.179 0 .306.183.23.357l-4.51 7.856 4.8 9.101c.088.185-.015.356-.212.375h-11.74c-.103.004-.201-.054-.267-.151l-4.165-7.73c-.022-.047-.108-.042-.11.03v7.523a.322.322 0 0 1-.31.328h-11.394c-.188-.021-.292-.131-.31-.33zm56.984 13.68c0 1.356-.599 2.33-1.8 2.922-1.202.592-3.182.888-5.948.888h-12.121c-2.578 0-4.466-.309-5.658-.921-1.192-.613-1.791-1.577-1.791-2.89v-9.89c0-1.546.555-2.635 1.67-3.27 1.111-.634 3.037-.954 5.779-.954h12.121c2.915 0 4.934.314 6.06.938 1.124.623 1.688 1.718 1.688 3.286v2.294c-.016.197-.132.309-.321.32h-11.192c-.158-.018-.23-.109-.246-.25v-1.32c0-.464-.12-.791-.367-.986-.245-.195-.651-.292-1.217-.292-.54 0-.936.1-1.182.303-.246.2-.367.528-.367.974v7.369c0 .446.12.77.367.975.246.201.642.302 1.182.302.542 0 .936-.104 1.197-.308.256-.207.387-.528.387-.97v-1.809c.013-.144.111-.242.246-.243h11.192c.17-.002.32.134.32.318z"/></g><g><g/><g clip-path="url(#3nrab)"><path fill="#005ead" d="M48.39 30.063h1.286v3.173h3.56v-3.173h1.283v7.624h-1.283v-3.382h-3.56v3.382H48.39zm17.398.674c.65-.564 1.444-.849 2.382-.849 1.042 0 1.894.344 2.554 1.032.662.687.99 1.635.99 2.846 0 .982-.146 1.754-.438 2.316A3.115 3.115 0 0 1 70 37.392a3.7 3.7 0 0 1-1.83.467c-1.06 0-1.917-.341-2.572-1.027-.655-.684-.981-1.669-.981-2.958 0-1.412.39-2.458 1.171-3.137zm.784 5.33c.424.488.957.73 1.598.73.638 0 1.168-.245 1.592-.732.421-.488.633-1.233.633-2.234 0-.942-.212-1.659-.638-2.144-.426-.485-.954-.727-1.587-.727-.641 0-1.174.242-1.598.725-.423.483-.635 1.213-.635 2.19 0 .977.212 1.707.635 2.192zm15.3-6.004h2.963c.729 0 1.27.06 1.626.18.353.123.658.346.913.673.254.325.383.715.383 1.171 0 .363-.075.682-.227.95a1.83 1.83 0 0 1-.675.68c.359.12.654.343.89.671.236.33.353.716.353 1.167-.046.723-.305 1.26-.77 1.608-.468.35-1.145.524-2.035.524h-3.421zm1.285 3.208h1.368c.548 0 .924-.027 1.128-.086.205-.056.387-.174.55-.347a.894.894 0 0 0 .24-.628c0-.403-.14-.684-.422-.841-.283-.16-.768-.238-1.451-.238h-1.413zm0 3.352h1.692c.73 0 1.23-.083 1.5-.254.274-.17.415-.464.43-.878 0-.245-.079-.47-.237-.679a1.005 1.005 0 0 0-.612-.394c-.254-.057-.659-.084-1.217-.084h-1.556zm15.645-5.886c.65-.564 1.444-.849 2.382-.849 1.041 0 1.894.344 2.554 1.032.662.687.99 1.635.99 2.846 0 .982-.145 1.754-.438 2.316a3.115 3.115 0 0 1-1.276 1.31 3.7 3.7 0 0 1-1.83.467c-1.06 0-1.917-.341-2.572-1.027-.655-.684-.981-1.669-.981-2.958 0-1.412.39-2.458 1.171-3.137zm.784 5.33c.424.488.957.73 1.598.73.637 0 1.168-.245 1.592-.732.421-.488.633-1.233.633-2.234 0-.942-.212-1.659-.638-2.144-.426-.485-.955-.727-1.587-.727-.64 0-1.174.242-1.598.725-.424.483-.635 1.213-.635 2.19 0 .977.211 1.707.635 2.192zm21.505-1.007c-.137.875-.49 1.56-1.061 2.057-.567.494-1.267.742-2.096.742-1.035 0-1.871-.341-2.5-1.023-.63-.68-.947-1.66-.947-2.933 0-.823.136-1.544.407-2.162.272-.617.684-1.08 1.24-1.389a3.654 3.654 0 0 1 1.808-.464c.824 0 1.499.211 2.02.631.524.419.86 1.012 1.01 1.784l-1.252.193c-.118-.513-.328-.897-.63-1.156a1.637 1.637 0 0 0-1.097-.387c-.649 0-1.175.232-1.58.7-.404.466-.606 1.204-.606 2.214 0 1.023.195 1.768.587 2.235.39.463.9.695 1.528.695.505 0 .924-.156 1.263-.468.338-.31.553-.789.643-1.436zm9.045-4.997h6.163v1.068h-2.441v6.556h-1.28v-6.556h-2.442zm16.03 10.545V30.063h1.17v.99c.275-.387.587-.679.935-.873.346-.194.768-.292 1.263-.292.648 0 1.219.169 1.713.503.497.335.87.809 1.12 1.419.254.61.381 1.28.381 2.007 0 .78-.139 1.483-.42 2.108-.277.624-.681 1.103-1.213 1.436-.53.331-1.09.498-1.674.498-.429 0-.812-.09-1.152-.273a2.612 2.612 0 0 1-.838-.688v3.71zm1.753-4.514c.394.468.874.703 1.434.703.57 0 1.059-.242 1.466-.73.407-.485.61-1.237.61-2.258 0-.971-.199-1.697-.596-2.182-.396-.483-.871-.726-1.422-.726-.547 0-1.032.257-1.453.771-.421.516-.63 1.265-.63 2.246 0 .98.197 1.706.59 2.176zm15.708-5.357c.65-.564 1.444-.849 2.382-.849 1.042 0 1.893.344 2.554 1.032.662.687.99 1.635.99 2.846 0 .982-.146 1.754-.438 2.316a3.117 3.117 0 0 1-1.275 1.31c-.56.312-1.17.467-1.831.467-1.06 0-1.917-.341-2.572-1.027-.655-.684-.981-1.669-.981-2.958 0-1.412.39-2.458 1.171-3.137zm.784 5.33c.424.488.957.73 1.598.73.638 0 1.168-.245 1.592-.732.42-.488.633-1.233.633-2.234 0-.942-.212-1.659-.638-2.144-.426-.485-.955-.727-1.587-.727-.641 0-1.174.242-1.598.725-.423.483-.634 1.213-.634 2.19 0 .977.21 1.707.634 2.192zm15.294-6.004h1.284v5.815l3.56-5.815h1.383v7.624h-1.284v-5.78l-3.56 5.78h-1.383zm5.335-2.888c-.07.598-.287 1.06-.652 1.378-.363.32-.847.483-1.452.483-.608 0-1.095-.16-1.458-.478-.365-.319-.582-.78-.652-1.383h.876c.066.326.2.569.397.729.197.161.463.24.794.24.388 0 .677-.076.874-.233.197-.155.331-.4.397-.736zm11.465 2.888h1.283v3.293c.41 0 .697-.078.86-.234.163-.16.404-.618.723-1.381.253-.603.458-1 .613-1.19.158-.191.338-.321.543-.388.205-.068.533-.1.984-.1h.258v1.068l-.358-.007c-.336 0-.553.052-.648.152-.1.105-.253.419-.458.94-.194.499-.372.842-.535 1.033-.16.194-.412.367-.747.525.55.149 1.092.666 1.626 1.55l1.405 2.363h-1.413l-1.37-2.363c-.28-.472-.526-.786-.733-.936a1.245 1.245 0 0 0-.75-.225v3.524h-1.283zm15.043 0h1.285v5.815l3.563-5.815h1.384v7.624h-1.284v-5.78l-3.563 5.78h-1.385z"/></g></g></g></g></g></svg>