<svg xmlns="http://www.w3.org/2000/svg" width="119" height="35" viewBox="0 0 119 35"><defs><clipPath id="axmpa"><path d="M29.74 27.05h8.316v7.531H29.74z"/></clipPath><clipPath id="axmpb"><path d="M0 26.89h7.943v7.531H0z"/></clipPath><clipPath id="axmpc"><path d="M104.62 9.15h13.935v16.615H104.62z"/></clipPath><clipPath id="axmpd"><path d="M0 34.585h118.553V0H0z"/></clipPath></defs><g><g><g opacity=".57"><g opacity=".57"><path fill="#b7b7b7" d="M61.89 33.205V28.1h1.45c.562 0 1.05.055 1.462.165.412.11.753.273 1.024.489.27.215.473.48.606.795.133.316.2.686.2 1.112 0 .488-.087.918-.261 1.288-.174.37-.516.672-1.025.905-.509.234-1.224.351-2.145.351zm2.674-3.306c-.17-.149-.471-.223-.902-.223v1.967c.405 0 .7-.077.883-.231.182-.154.274-.427.274-.82 0-.313-.086-.544-.255-.693z"/></g><g opacity=".57"><path fill="#b7b7b7" d="M67.175 33.205V28.1h3.33v1.394h-1.573v.489h1.42v1.308h-1.42v.536h1.605v1.378z"/></g><g opacity=".57"><path fill="#b7b7b7" d="M73.387 31.165l.254-1.174.552-1.891h1.903L74.2 33.205h-1.657L70.656 28.1h1.926l.529 1.86.239 1.205z"/></g><g opacity=".57"><path fill="#b7b7b7" d="M76.338 33.205V28.1h3.33v1.394h-1.573v.489h1.42v1.308h-1.42v.536H79.7v1.378z"/></g><g opacity=".57"><path fill="#b7b7b7" d="M80.226 33.205V28.1h1.788v3.458h1.742v1.647z"/></g><g opacity=".57"><path fill="#b7b7b7" d="M86.766 27.99c.378 0 .727.07 1.047.209a2.646 2.646 0 0 1 1.408 1.43c.138.33.207.675.207 1.032 0 .483-.119.93-.357 1.34-.238.409-.562.734-.974.973a2.61 2.61 0 0 1-1.331.358c-.476 0-.92-.12-1.332-.358A2.637 2.637 0 0 1 84.46 32a2.613 2.613 0 0 1-.357-1.339c0-.357.069-.7.208-1.028.137-.328.327-.616.57-.863a2.605 2.605 0 0 1 1.885-.78m-.005 1.717a.772.772 0 0 0-.596.284.998.998 0 0 0-.251.686c0 .268.084.496.251.685.168.19.367.284.596.284a.776.776 0 0 0 .595-.28.993.993 0 0 0 .252-.689.993.993 0 0 0-.252-.69.776.776 0 0 0-.595-.28"/></g><g opacity=".57"><path fill="#b7b7b7" d="M91.722 31.708v1.497h-1.788V28.1h2.218c.69 0 1.21.146 1.557.437.348.292.522.763.522 1.414 0 .494-.183.91-.549 1.25-.366.338-.87.507-1.515.507zm.007-1.321h.43c.25 0 .376-.141.376-.423 0-.287-.135-.43-.406-.43h-.4z"/></g><g opacity=".57"><path fill="#b7b7b7" d="M99.115 30.251l-.222.993-.561 1.962h-1.073l-.56-1.962-.232-.993-.076.938-.207 2.017h-1.757l.852-5.106h1.84l.707 2.592.713-2.592h1.842l.783 5.106h-1.75l-.214-2.017z"/></g><g opacity=".57"><path fill="#b7b7b7" d="M101.487 33.205V28.1h3.33v1.394h-1.573v.489h1.42v1.308h-1.42v.536h1.604v1.378z"/></g><g opacity=".57"><path fill="#b7b7b7" d="M106.99 30.566l.062.804v1.835h-1.727V28.1h1.757l1.535 2.678-.054-.96V28.1h1.727v5.105h-1.766z"/></g><g opacity=".57"><path fill="#b7b7b7" d="M111.578 33.205v-3.427h-.997V28.1h3.775v1.678h-.998v3.427z"/></g><g opacity=".57"><path fill="#b7b7b7" d="M18.92 18.52c1.883 0 3.45 1.61 3.45 3.543 0 2.093-1.567 3.703-3.45 3.703-1.881 0-3.45-1.61-3.45-3.703 0-1.932 1.569-3.543 3.45-3.543zm.157 3.381c.314.162 2.039-1.126 2.039-1.126-.628-1.128-1.725-1.45-1.725-1.45s-.627 2.416-.314 2.576z"/></g><g opacity=".57"><path fill="#b7b7b7" d="M15.16 20.933c.312-.805.784-1.449 1.567-1.933-.157-.16-.47-.16-.627-.16-.628 0-1.255.483-1.255 1.288 0 .321.157.644.314.805"/></g><g opacity=".57"><path fill="#b7b7b7" d="M18.917 25.931c-.47 0-.94 0-1.255-.161 0 .645.627 1.128 1.255 1.128.627 0 1.098-.483 1.254-1.128-.47.161-.784.161-1.254.161"/></g><g opacity=".57"><path fill="#b7b7b7" d="M22.681 20.933c.157-.161.313-.484.313-.805 0-.805-.626-1.288-1.254-1.288-.157 0-.47 0-.627.16.784.484 1.255 1.128 1.568 1.933"/></g><g opacity=".57"><path fill="#b7b7b7" d="M22.843 19.806l-.471-.644.783-.322.158.322z"/></g><g opacity=".57"><path fill="#b7b7b7" d="M15.31 19l-.313.806-.628-.806.157-.16z"/></g><g opacity=".57"><path fill="#b7b7b7" d="M18.455 26.73h.784l-.157.966h-.47z"/></g><g opacity=".57"><path fill="#b7b7b7" d="M22.689 22.71c-.157 1.127-.94 2.093-1.725 2.738 1.725 1.77 4.234 3.864 6.587 5.475 1.411-1.45 2.352-3.06 2.98-4.992-2.51-1.288-5.489-2.577-7.842-3.221"/></g><g opacity=".57"><g opacity=".57"/><g clip-path="url(#axmpa)" opacity=".57"><path fill="#b7b7b7" d="M33.817 27.694c-.313-.16-.627-.483-1.098-.644-.627 1.933-1.725 3.704-2.979 5.314.313.161.784.484 1.098.645 3.606 2.093 5.959 1.932 6.744.482 1.097-1.932.47-3.381-3.765-5.797"/></g></g><g opacity=".57"><path fill="#b7b7b7" d="M16.723 25.439c-.784-.805-1.568-1.772-1.568-2.899-2.823.805-6.273 2.416-9.096 3.704.627 1.932 1.725 3.704 2.98 5.314 2.666-1.771 5.645-4.187 7.684-6.12"/></g><g opacity=".57"><g opacity=".57"/><g clip-path="url(#axmpb)" opacity=".57"><path fill="#b7b7b7" d="M4.963 26.89c-.47.16-.784.322-1.097.644-3.45 2.093-4.392 4.187-3.607 5.797.784 1.45 3.136 1.61 6.587-.483.313-.16.784-.483 1.097-.644-1.411-1.45-2.352-3.22-2.98-5.314"/></g></g><g opacity=".57"><path fill="#b7b7b7" d="M18.925 7.085c1.098 0 2.039 0 3.137.322V6.12C22.062 1.932 20.65 0 19.082 0c-1.725 0-3.136 1.932-3.136 6.119v1.127c.94-.16 1.881-.16 2.98-.16"/></g><g opacity=".57"><path fill="#b7b7b7" d="M18.918 7.57c-1.098 0-2.04.161-2.823.322v1.289c.941 0 2.195 0 3.136.322-.941.322-2.195.644-3.136.966.314 2.737.627 5.797 1.255 8.052.47-.162.94-.322 1.568-.322.627 0 1.254.16 1.725.483.784-3.06 1.254-7.569 1.411-10.79-1.098-.16-2.038-.322-3.136-.322"/></g><g opacity=".57"><path fill="#b7b7b7" d="M28.173 31.238s1.725-1.289 2.51-2.738a117.062 117.062 0 0 1-1.569 3.382z"/></g><g opacity=".57"><path fill="#b7b7b7" d="M37.346 14.073h4.046v11.692h5.843V14.073h4.045V9.15H37.346z"/></g><g opacity=".57"><g opacity=".57"/><g clip-path="url(#axmpc)" opacity=".57"><path fill="#b7b7b7" d="M104.62 9.15v4.923h4.046v11.692h5.843V14.073h4.046V9.15z"/></g></g><g opacity=".57"/><g clip-path="url(#axmpd)" opacity=".57"><path fill="#b7b7b7" d="M67.612 25.765h5.843V9.15h-5.843z"/></g><g clip-path="url(#axmpd)" opacity=".57"><path fill="#b7b7b7" d="M98.024 19.304h4.346v-3.385h-4.346v-2h5.095V9.15H92.78v16.615h10.938v-4.461h-5.694z"/></g><g clip-path="url(#axmpd)" opacity=".57"><path fill="#b7b7b7" d="M85.438 14.842l.15 3.077-4.945-8.769H74.95v16.615h5.543v-6l-.15-2.615 4.945 8.615h5.843V9.15h-5.693z"/></g><g clip-path="url(#axmpd)" opacity=".57"><path fill="#b7b7b7" d="M64.166 19.303c-.3.308-.6.462-1.05.77l3.296 5.692H60.72l-2.547-4.308-.6-.923.15 2.615.15 2.616H52.48V9.15h6.742c2.248 0 3.896.461 5.094 1.538 1.049.923 1.647 2.462 1.647 4.616 0 1.537-.598 2.922-1.796 4zm-4.5-2.307c1.045 0 1.643-.462 1.643-1.692 0-1.232-.598-1.847-1.794-1.847h-1.792v3.539z"/></g></g></g></g></svg>